<svg xmlns="http://www.w3.org/2000/svg" height="400" viewBox="0 0 750 693" preserveAspectRatio="xMidYMid meet"><path d="M369.9 87.7l-.8 35.8-.6 12h-8l-.3-20.3L360 95h-5v40.5l-11 1.7c-28 4.4-53.6 17.5-74 37.8-23.9 23.8-36.8 52.9-39.4 88.8l-.6 8.2 6.1 4c10.1 6.5 28.1 12.8 50.9 17.6 2 .5.9 1.4-7.5 5.8-19.6 10.3-34.3 21.1-48.8 36-66.1 67.5-71.5 173.7-12.6 247.7 9.5 12 25.9 27.4 38.6 36.4 11.8 8.4 33.7 19.6 47.7 24.5 12.3 4.2 30.5 7.8 46.9 9.1 22.7 1.9 48.2-1.1 70.6-8.3 47.5-15.2 87.1-48.9 109.8-93.3 20.6-40.4 25.7-87.1 14.3-132-12.9-51.1-47.2-94.4-94.4-119.1-5.8-3-9.4-5.5-8.6-5.8.8-.2 6-1.4 11.5-2.6 17.2-3.8 32.5-10.2 40.9-17.2l3.9-3.2-.6-9.2c-1.2-17.3-6.7-38.6-13.7-52.4-8.7-17.2-24.4-35.9-39.9-47.6-16.3-12.2-38.4-21.6-58.7-25-5.4-.9-10.3-2-10.7-2.4s-1.1-16.4-1.5-35.6c-.6-32.1-.8-34.9-2.4-35.2-1.7-.3-1.8 1.4-1.9 23.5zm17.6 58.7c10.3 2.3 4 3.1-24.2 3.1-23.2 0-28.7-.4-27.2-1.9.3-.3 4.7-1.2 9.9-2 11-1.8 31.9-1.4 41.5.8zm45.7 19.1c0 .5-4 2-8.9 3.3-7.7 2-15.1 3.1-39.8 6l-6 .7 4.6 2.7c2.5 1.5 6.3 4.6 8.4 6.9l3.8 4.2 10.1-1.3c13.6-1.7 28.9-5.2 37.2-8.6l6.8-2.7 7.2 7.7c17 18.2 28.9 42.9 32.4 67.5 1.9 12.3-.5 12.8-2.9.6-1.4-6.8-1.7-7.3-4.3-5.3-1.5 1.2-1.5 2-.1 9.2 1.2 6.5 1.2 8 .1 8.7-2.8 1.8-3.7.7-4.9-6-.6-3.8-1.5-7.4-1.8-8-.9-1.3-5.1-.2-5.1 1.3s1.9 12.5 2.6 14.7c.5 1.7-4.4 4.6-5.6 3.2-.4-.4-1.3-4.3-2-8.6-1.2-7.2-1.5-7.8-3.4-7.2-1.2.3-5.8 1.6-10.3 2.8-9.4 2.5-9.1 2-6.9 12.5 1 4.7 1.1 6.4.2 6.7-4 1.4-29.4 3.6-51.6 4.6-20.1.9-31.4.9-48.4 0-12.1-.6-23.2-1.4-24.5-1.8-2.4-.6-2.4-.7-1.8-9.9.7-10.8 2.2-9.4-12.3-11.4-4.7-.6-13.8-2.2-20.4-3.6L273 252c-.5 0-1.4 4-2.1 9-1 7.9-1.4 9-3.2 9s-1.9-.5-1.3-4.8l1.2-9.8.6-5.2-5.1-1.1-5.5-1.1c-.1 0-.8 3.8-1.5 8.5s-1.7 8.7-2.1 9c-.8.5-11.6-3.2-13.6-4.7-.7-.5-.8-2.9-.3-7.1 3.2-26.2 14.8-50.2 34.6-71.6l5.9-6.4 6.5 2.6c9.5 3.8 20.9 6.7 33.9 8.7l11.5 1.8 6.2-5.8c3.4-3.2 7.1-6.1 8.3-6.5 3.4-1.1 1.2-2.5-3.8-2.5-9.8-.1-36.2-4.8-44.6-8l-2.9-1.1 2.1-1.5c2-1.4 3.3-1.3 13.4 1 19 4.2 28.8 5.1 54.3 5 25.1 0 39-1.6 55.5-6.3 6-1.7 6.7-1.7 9.4-.2 1.6.9 2.9 2 2.8 2.6zm-169.6 92.2c-1 7-1.6 8.4-3.2 8.1-1.7-.4-1.8-.6-.9-7.6.5-4.4 1-5.2 2.7-5.2 1.8 0 2 .4 1.4 4.7zm28.4 2.7l17.4 3.1 4.8.7-.6 3.6c-.3 2-.6 4.8-.6 6.1 0 2.3-.2 2.4-5.7 1.7-8.6-1-30.7-5.6-31.7-6.6-.4-.4-.5-3.1-.1-5.9.5-3.8 1.1-5.1 2.3-5.1 1 0 7.3 1.1 14.2 2.4zm-38.5 8.4c20.1 6.7 46 11.7 73 14.2 17.9 1.6 74.9 1.3 93.7-.5 26-2.5 44-6.5 59.7-13.5 5.1-2.2 9.4-4 9.7-4s.4 1 .2 2.1c-.6 4.5-19.8 12.6-40.8 17.3-38.1 8.5-99.3 9.8-146.5 3-30.1-4.3-63.5-15.6-63.5-21.5 0-1.3.5-1.9 1.3-1.6.6.3 6.6 2.4 13.2 4.5zm57.6 29.2c11.3 2.2 31.9 4 45.6 4h14.1l4.9 6.2c9.7 12.3 25.8 26.4 40.4 35.4 3.2 2 5.9 4.2 5.9 4.8s-2.7 7.2-6.1 14.7l-6.1 13.7-6.3-2.9c-12.7-5.7-21.4-7.4-39-7.4-12.2.1-17.6.5-22.5 1.8-18.7 5.1-32 12.3-45 24.3-6.7 6.3-16.8 19.2-18.9 24.2-.7 1.8-1.7 3.2-2.2 3.2-1.6 0-26.9-13-26.9-13.8 0-.4 1.1-4 2.5-8.1 4.9-14.4 6.8-26.4 6.9-43.1 0-11.7-.4-17.2-1.7-22.5l-1.8-7 3.8-3.2c5.8-4.9 22.8-14.8 33.4-19.3l13.5-5.9c.1-.1 2.6.4 5.5.9zm131.4 7.4c10.9 5.3 28.6 16.5 35.8 22.8 3.4 3 3.9 4 5.1 11.3.8 4.4 1.2 8.2 1.1 8.4-.7.6-14.7-3.1-22.6-6-9.7-3.5-26.3-11.8-35.4-17.6-9-5.8-20.8-15.3-20-16.1 1.2-1.3 20.1-8.1 22.5-8.1 1.4-.1 7.5 2.3 13.5 5.3zm9.5 56.1c4.7 1.8 13.3 4.5 19.3 6l10.7 2.8v6.6c0 4.8.5 7.5 2 9.8 3.3 5.4 4.5 5.7 24.8 5l18.3-.7 2 4.8c6.6 15.2 14.6 46.1 12.1 47-3.3 1.1-14.1 9.2-21.2 15.9-13 12.2-25.4 29.9-34.8 49.5-2.6 5.4-5 9.8-5.5 9.8-.4 0-6.2-2.7-12.8-6.1-9.9-4.9-11.9-6.3-11.4-7.7 5.3-13.1 7.7-25.2 7.7-39.2.1-18.7-4.8-36.5-14.4-52.1-6.1-9.9-21.4-25.6-30-30.9-3.2-1.9-5.8-3.9-5.8-4.4s2.8-7.1 6.2-14.7l6.1-13.8 9.1 4.6c5 2.5 12.9 6 17.6 7.8zm-215-1.7c0 11.9-8.3 40.8-16.5 57.4l-4.9 9.8-2.5-1.7c-17.5-11.3-19.1-12.6-18.5-14.7 3.3-11.2 13.5-31.8 21.5-43.7 5.7-8.5 6-8.8 10.1-9.2 10.8-.9 10.8-.9 10.8 2.1zM506.2 372h10.7l3.5 6.2c5.5 9.9 5.6 9.5-1.1 10.2-3.2.3-11.1.7-17.6.8l-11.9.3-2.4-2.8c-2-2.4-2.4-3.9-2.4-9.4v-6.6l5.3.7c2.8.3 10 .6 15.9.6zm-123.6 18c11.2 2.8 25.1 10 32.6 17l6.3 5.8-11.3 11.5c-12.8 13-12.3 11-5.4 21.4 1.8 2.8 3.9 5 4.5 4.8 14.3-4.8 27.1-8.5 28.1-8.2 2.1.8 4.1 12.6 3.9 23.7-.2 12.4-2.6 22.6-7.6 32.6-3.7 7.4-12.2 19.3-14.3 20.1-.7.2-6.7-4.3-13.3-10.2l-12-10.6-7.1 4.7c-5.9 4-6.9 5.1-6.4 6.8.4 1.2 2.6 7.5 5 14 2.4 6.6 4.4 12.5 4.4 13.2s-1.7 1.8-3.7 2.4c-19.1 5.3-38.7 3.4-56.3-5.5-7.1-3.6-18-11.3-18-12.8 0-.5 4.6-5.8 10.3-11.9 5.6-6 10.3-11.3 10.5-11.8.5-1.2-7.8-14-9-14-.6 0-7.8 2.1-15.9 4.7-8.2 2.5-15.1 4.4-15.4 4.1-.3-.2-1.4-4-2.6-8.4-2.7-10.3-2.9-26.1-.4-35.9.9-3.9 3.6-11.1 6-16 4.1-8.7 11.7-19.5 13.7-19.5.5 0 6.4 4.5 13 10.1 7.1 5.9 12.6 9.8 13.4 9.5 2.7-1 12.4-8.8 12.4-10 0-.6-2.5-7.1-5.6-14.4-3.5-8.3-5.3-13.7-4.8-14.2.6-.6 4.3-1.9 8.4-2.9 10.3-2.7 26-2.8 36.6-.1zm-121.3 26.4l13.5 6.5-2.8 7.3c-7.8 20.1-8.1 45.9-1 66.8 7 20.2 20.6 37.9 38.5 49.9 4.4 2.9 7.9 5.6 7.8 6-.2.8-11.6 26.5-11.9 27-.1.1-4.9-1.5-10.6-3.7-27.3-10.7-53.1-14.7-72.3-11.1-5.9 1.1-6 1.1-8.3-1.8-5-6.2-21.2-41.9-21.2-46.8 0-.8 3.6-4.1 7.9-7.4 11.8-9 12.6-13.3 4.5-24.2l-3.6-4.9 6.9-7.3c15.1-15.9 29.5-38.7 36.8-58 1-2.6 1.9-4.7 2-4.7s6.3 2.9 13.8 6.4zm282.1 60.8c-.4 5.1-1 9.7-1.5 10.2-.7.8-4.9-11-4.9-13.9 0-1.4 4.6-5.5 6.1-5.5.5 0 .6 4.2.3 9.2zM204 487.9c6.1 8.3 5.4 11-5.3 19.1-3.8 2.9-7 5-7.2 4.8-.4-.4-4.4-21.2-4.1-21.5 1.5-1.6 11.3-8.2 11.8-8 .4.1 2.5 2.6 4.8 5.6zm318.8 23.7l11 8.9c2.6 2.4-9 28.1-20.1 44.6-5 7.6-5.2 7.7-10.1 8.3-2.8.3-7.2.6-9.8.6-5.6 0-5.5.5-3.2-13.1 2-11.5 6.2-25.2 11.9-38.1 4.3-9.8 9.1-18.8 10.1-18.8.3 0 4.9 3.4 10.2 7.6zm-56.4 3.4c6.9 3.3 12.6 6.1 12.6 6.3s-1.3 4.3-3 9.1c-8 23.7-10.9 49.8-7.5 66.6l2.2 11c.4 2.2-.6 3.1-8.4 8.1-22.6 14.5-46.9 23.6-72.4 27.4l-11.1 1.5c-.3 0-3.2-4.2-6.4-9.3-6.6-10.4-21.6-26.2-32.9-34.5-5.6-4.1-17-11.2-30.3-18.9-1.1-.6 0-3.8 4.7-14.2l6.4-13.8c.3-.2 3.2.7 6.5 2 6.3 2.6 15.7 5.2 22.8 6.3l4.1.6 1.2 8.2c1.2 8.8 3 12.2 7.7 14.5 2.6 1.3 5.1 1.1 23.1-1.4 27.9-3.8 29.5-5 27.4-20-.6-4.4-1.3-9-1.7-10.1-.5-1.8.3-2.7 4.8-5.2 12.4-7.2 25.4-20.3 33.2-33.7 2.1-3.6 4-6.5 4.1-6.5.2 0 6 2.7 12.9 6zm-55.9 51.1c.7 7.1-.1 10.1-3.4 11.8-1 .6-10.9 2.2-22 3.8l-20.1 2.7-2.7-2c-3-2.3-4.1-5.3-4.5-13.1l-.3-5.3 10.1-.5c12.5-.5 23.7-2.8 32.9-6.5l7-2.8 1.2 2.7c.6 1.4 1.4 5.6 1.8 9.2zM263.7 589c15.5 3.6 35.8 12.2 49.9 21.2l6.2 3.9-5 10.9c-2.8 6.1-5.7 11-6.3 11-2.2 0-18.4-6.8-26.7-11.2-11-5.9-25-15.1-29.7-19.7-3.2-3-3.9-4.5-4.5-9.1-.4-3-1-6.6-1.3-7.9-.6-2.3-.5-2.4 4.3-1.7 2.7.4 8.6 1.6 13.1 2.6zm86.8 53c1 1.1 1.6 2.2 1.3 2.5-.7.8-12.8-.7-12.8-1.5 0-.7 5.8-2.6 8.6-2.9.6-.1 1.9.8 2.9 1.9zm4.5-461.9c-5.6 1.7-13.3 7.5-16.8 12.7-10.8 16.1-3.1 39.1 15.5 45.8 5.3 1.8 15 1.7 20.9-.3 6.7-2.3 15.4-11 17.7-17.7 6.9-20.2-6.2-40.3-26.8-41.2-3.8-.2-8.6.1-10.5.7zm17.2 5.1c5.7 1.7 13.3 8.8 15.5 14.6 6.6 17.5-5.7 35.6-24.2 35.5-13.4-.1-24-9.9-25.2-23.2-1-11 4-20.3 13.6-25.3 5.9-3.1 13.3-3.7 20.3-1.6zm-19.3 3.6c-16.7 8.6-17 31.8-.7 41.1 15.8 9.1 34.8-2 34.8-20.4 0-18.2-18-29.1-34.1-20.7zm54.6 40.1c-4.9 2.2-9.3 6.5-11.1 10.8-2.2 5.1-1.8 13.3.9 18.4 8.7 16.4 33.6 13.5 38.7-4.6 4.6-16.5-13-31.7-28.5-24.6zm16.3 3.2c13.2 6.4 13.3 25.2.1 31.9-12 6.2-25.9-2.3-25.9-15.9 0-13.8 13.2-22 25.8-16zm-14.8 2.7c-13.6 6.8-8.7 28.2 6.5 28.2 9 0 16.5-8.4 15-17-1.7-10-12.5-15.7-21.5-11.2zm-60.5 23.7c-3.1 3-3.3 8.2-.4 11.9 1.6 2 2.9 2.6 6 2.6 5.3 0 8.9-3.5 8.9-8.5 0-7.6-9.2-11.4-14.5-6zm9.3 5.7c.5 3.9-3.3 5.8-6 3-1.7-1.6-1.8-2.3-.8-4.1 1.7-3.3 6.4-2.5 6.8 1.1zm77.2 5.5c-3.4.6-4.7 2-3.3 3.4.7.7 2.5.9 4.7.5 2.7-.5 3.6-1.2 3.6-2.6 0-2-.4-2.1-5-1.3zm-67.2 66.4c-1.2.6-1.8 2.2-1.8 4.5 0 4.3 3.4 6.4 7.5 4.6 2-.9 2.5-1.9 2.5-4.6 0-4.8-4-7-8.2-4.5zm5.5 3.1c.7 2.1-.4 3.8-2.3 3.8-1 0-2-.6-2.3-1.3-.7-2 .4-3.7 2.3-3.7 1 0 2 .6 2.3 1.2z"/><path d="M278.2 367.6c-4.1 2.8-2.2 9.4 2.8 9.4 5.5 0 7.8-5.2 4-9-2.4-2.4-3.8-2.5-6.8-.4zm5.3 3.9c0 1.3-.8 2.1-2.2 2.3-1.7.3-2.3-.2-2.3-1.6 0-1 .3-2.2.7-2.6 1.3-1.3 3.8-.1 3.8 1.9zm196.1 91.8c-3.9 2.8-1.3 9.7 3.6 9.7 2.2 0 5.8-3.4 5.8-5.5s-3.6-5.5-5.8-5.5c-1 0-2.6.6-3.6 1.3zm5.7 2.9c.7 2.1-.4 3.8-2.3 3.8-1 0-2-.6-2.3-1.3-.7-2 .4-3.7 2.3-3.7 1 0 2 .6 2.3 1.2zm-176.8-36.1c-5.3 6.3-8.8 16-10 27.5-.7 6.6.9 21.2 2.6 22.9.7.7 4.7-.3 12.5-3l11.6-4-.6-3.5c-1.9-10.7-1.8-12.5.8-20l3.2-9c.4-1.1-2-3.6-7.3-7.8-4.3-3.4-8.3-6.2-9-6.2-.6 0-2.3 1.4-3.8 3.1zm12.2 6.3l5.1 3.8-2.5 6.2c-2.6 6.3-3.4 14.8-2 21.6l.7 3.5-9.2 3.2c-6.2 2.1-9.5 2.8-10 2-1.4-2.2-1.9-16.5-.8-23.2 1.1-7.2 4.3-15.3 8.1-20.6 2.4-3.3 1.4-3.7 10.6 3.5zm36 21.3l-5.3 32.9-.6 4.1 4.8 1.7c2.6.9 7.1 1.6 9.9 1.6h5.2l5.4-32.6c4.5-27.7 5.1-32.7 3.8-33.5-2.6-1.6-8.3-2.9-13.5-2.9h-5.1l-4.6 28.7zm-6.4-25.1c-6.3 3-12.7 9.8-16.1 17.2-3.7 8.1-3.8 19.3 0 27.3 2.7 5.8 9.2 13.9 11.2 13.9 1 0 11.3-59.7 10.4-60.5-.2-.2-2.6.8-5.5 2.1zm35.2 4.6c-.2.7-.9 4.8-1.5 9.2-1.4 9.1-1.4 9 6.4 10 2.8.4 6.1 1 7.4 1.3 1.7.4 2.2.1 2.2-1.3 0-3.2-4.6-12-8.5-16.3s-5.3-4.9-6-2.9zm-4 25l-.8 7.2-.2 3 8.9 1.4c7.3 1.1 9 1.1 9.7 0 1.3-2 2.3-11.9 1.3-12.8-.9-.8-12.6-3-16.2-3-1.7 0-2.2.8-2.7 4.2zm25 1.3c-4.5 4.4-2.9 11.6 3.1 14.1 9.1 3.8 16.5-7.8 9.2-14.6-3.2-2.9-9.2-2.7-12.3.5zm9.9 1.6c3.9 3.1 3.4 7.4-1.2 9.8-1.8.9-2.8.9-5-.1-4.3-2.1-4.3-8.5 0-10.6 3.1-1.5 3.2-1.5 6.2.9zm-36.9 10.1c-.2.7-.6 3.1-.7 5.3l-.3 4 6.3.8c3.4.5 6.8.7 7.5.4.7-.2 2.2-2.3 3.5-4.5l2.2-4-7.2-1.2-9.1-1.6c-.9-.3-1.9.1-2.2.8zm-2.8 15.9c-.3 2.4-.4 4.6-.1 4.8.5.6 7.4-2.6 10.4-4.9 1.4-1 2.3-2.1 2-2.3-.3-.3-3-.8-6.1-1.2l-5.6-.7-.6 4.3zM240 453.9c-1.7 3.2-1.1 6 1.5 7.7 5.2 3.4 11.1-3.1 7-7.6-2.3-2.6-7.1-2.6-8.5-.1zm6.5 3.6c0 3-3.9 2.7-4.3-.3-.3-2 0-2.3 2-2 1.5.2 2.3 1 2.3 2.3zm21.7 82.6c-4.2 1.6-3.7 9 .7 10.2 3.1.8 6.6-1.5 6.9-4.6.6-4.6-3-7.3-7.6-5.6zm4.8 4.9c0 2.4-2.5 3.3-4 1.4-1-1.1-1-1.7 0-2.8 1.5-1.9 4-1 4 1.4zm170.2 3.6c-2.4 1.7-3 6.2-1 8.2 3.7 3.7 11.3-1.2 8.8-5.7-.9-1.7-3.9-4.1-5.2-4.1-.2 0-1.4.7-2.6 1.6zm4.8 3c1.1 1.2 1 1.8-.3 3.2-1.6 1.5-1.8 1.5-3.4 0-1.3-1.4-1.4-2-.3-3.2.7-.9 1.6-1.6 2-1.6s1.3.7 2 1.6z"/></svg>
