<svg xmlns="http://www.w3.org/2000/svg" viewBox="0 0 50 50" width="250" height="250"><path d="M9.3 14C8 14 7 15 7 16.402c0 .598.2.797.3 1L8.86 20a.61.61 0 0 1 .098.301c.102.398-.2.7-.598.7H2v3h8.8c1.3 0 2.398-1 2.398-2.402 0-.598-.2-.797-.297-1L11.234 18c-.06-.074-.102-.2-.102-.3 0-.398.3-.7.7-.7H16v7h4v-7h4v-3zm17 0l-3.223 10H26.3l.7-2h3.152l.695 2H34l-3.332-10zm8.7 0v10h3v-3.11l3 2.81c.098.102.398.3.797.3H48v-3h-4.402c-.227 0-.387-.066-.52-.16l-.16-.148C44.14 20.145 45 18.922 45 17.5a3.51 3.51 0 0 0-3.5-3.5zm3 3h3a.5.5 0 1 1 0 1h-3zm-9.434.402L29.574 20H27.7zM2.398 27l3.336 10h2.367l1.57-4.55L11.246 37h2.352l3.336-10H13l-.97 2.902L11.066 27H7.602l-1.055 2.938L5.566 27zM19.3 27l-3.223 10H19.3l.7-2h3.152l.695 2H27l-3.332-10zm8.7 0v10h3v-3.113l3 2.813a1.21 1.21 0 0 0 .801.301h9.297c1.3 0 2.402-.902 2.402-2.402 0-.598-.2-.797-.3-1l-1.668-2.5c-.03-.066-.098-.195-.098-.297 0-.398.297-.8.598-.8H48v-3h-5.7c-1.3 0-2.398 1.102-2.398 2.5 0 .602.195.8.297 1L42 33c.043.102.098.2.098.3 0 .398-.297.7-.598.7h-4.902a.88.88 0 0 1-.418-.102l-.215-.23C37.16 33.11 38 31.902 38 30.5a3.51 3.51 0 0 0-3.5-3.5zm3 3h3a.5.5 0 1 1 0 1h-3zm-9.434.402L22.574 33H20.7z"/></svg>
